<svg xmlns="http://www.w3.org/2000/svg" version="1.1" viewBox="0 0 32 40" x="0px" y="0px"><title>move</title><path d="M17.975 22.025v0 0c1.141 0.232 2 1.241 2 2.45 0 1.381-1.119 2.5-2.5 2.5s-2.5-1.119-2.5-2.5c0-1.209 0.859-2.218 2-2.45v-3.343l-8-8v3.293h-1v-5h5v1h-3.302l8.302 8.375v3.675zM8.975 21.182l-1.768 1.768-0.707-0.707 1.768-1.768-1.768-1.768 0.707-0.707 1.768 1.768 1.768-1.768 0.707 0.707-1.768 1.768 1.768 1.768-0.707 0.707-1.768-1.768zM22.975 14.182l-1.768 1.768-0.707-0.707 1.768-1.768-1.768-1.768 0.707-0.707 1.768 1.768 1.768-1.768 0.707 0.707-1.768 1.768 1.768 1.768-0.707 0.707-1.768-1.768zM17.975 7.182l-1.768 1.768-0.707-0.707 1.768-1.768-1.768-1.768 0.707-0.707 1.768 1.768 1.768-1.768 0.707 0.707-1.768 1.768 1.768 1.768-0.707 0.707-1.768-1.768zM17.475 25.975c0.828 0 1.5-0.672 1.5-1.5s-0.672-1.5-1.5-1.5c-0.828 0-1.5 0.672-1.5 1.5s0.672 1.5 1.5 1.5v0z"/><text x="0" y="47" fill="#000000" font-size="5px" font-weight="bold" font-family="'Helvetica Neue', Helvetica, Arial-Unicode, Arial, Sans-serif">Created by IcoMoon</text><text x="0" y="52" fill="#000000" font-size="5px" font-weight="bold" font-family="'Helvetica Neue', Helvetica, Arial-Unicode, Arial, Sans-serif">from the Noun Project</text></svg>